<svg width="200" height="160" viewBox="0 0 200 160" fill="none" xmlns="http://www.w3.org/2000/svg">
<path d="M190.909 92.4023C190.906 55.2976 168.327 21.9233 133.875 8.09707C99.423 -5.72914 60.0204 2.77126 34.3423 29.5695C8.66423 56.3677 1.87078 96.0785 17.1817 129.881H182.818C188.162 118.109 190.921 105.329 190.909 92.4023Z" fill="#F0F2FF"/>
<path d="M11.3635 129.881H188.636" stroke="#4550E5" stroke-width="2.27273" stroke-linecap="round" stroke-linejoin="round"/>
<path d="M1.13647 129.881H6.81829" stroke="#4550E5" stroke-width="2.27273" stroke-linecap="round" stroke-linejoin="round"/>
<path d="M193.182 129.881H198.864" stroke="#4550E5" stroke-width="2.27273" stroke-linecap="round" stroke-linejoin="round"/>
<ellipse cx="98.7046" cy="155.548" rx="33.75" ry="3.88414" fill="#F0F2FF"/>
<path d="M150.636 64.8272C150.636 62.6425 149.766 60.5476 148.219 59.0049C146.671 57.4622 144.572 56.5985 142.386 56.6046H57.6135C55.4276 56.5985 53.3291 57.4622 51.7813 59.0049C50.2334 60.5476 49.3635 62.6425 49.3635 64.8272V121H150.636V64.8272Z" fill="#D6DAFF"/>
<path d="M117.023 56.6046H57.6135C55.4276 56.5985 53.3291 57.4622 51.7813 59.0049C50.2334 60.5476 49.3635 62.6425 49.3635 64.8272V121H52.5908L117.023 56.6046Z" fill="white"/>
<path d="M112.273 145.531H87.7273L89.25 133.265H110.75L112.273 145.531Z" fill="white"/>
<path fill-rule="evenodd" clip-rule="evenodd" d="M112.273 145.531H87.7273L89.25 133.265H110.75L112.273 145.531V145.531Z" stroke="#4550E5" stroke-width="2.27273" stroke-linecap="round" stroke-linejoin="round"/>
<path d="M117.568 151.664H82.4319C81.7875 151.67 81.1837 151.35 80.8263 150.814C80.4688 150.278 80.406 149.599 80.6591 149.006C81.68 146.884 83.8261 145.534 86.1819 145.531H113.818C116.174 145.534 118.32 146.884 119.341 149.006C119.594 149.599 119.531 150.278 119.174 150.814C118.816 151.35 118.213 151.67 117.568 151.664Z" fill="white" stroke="#4550E5" stroke-width="2.27273" stroke-linecap="round" stroke-linejoin="round"/>
<path d="M142.386 133.265C144.572 133.271 146.671 132.408 148.219 130.865C149.766 129.322 150.636 127.227 150.636 125.043V121H49.3635V125.043C49.3635 127.227 50.2334 129.322 51.7813 130.865C53.3291 132.408 55.4276 133.271 57.6135 133.265H142.386Z" fill="white" stroke="#4550E5" stroke-width="2.27273" stroke-linecap="round" stroke-linejoin="round"/>
<path fill-rule="evenodd" clip-rule="evenodd" d="M150.636 64.8272C150.636 62.6425 149.766 60.5476 148.219 59.0049C146.671 57.4622 144.572 56.5985 142.386 56.6046H57.6135C55.4276 56.5985 53.3291 57.4622 51.7813 59.0049C50.2334 60.5476 49.3635 62.6425 49.3635 64.8272V121H150.636V64.8272Z" stroke="#4550E5" stroke-width="2.27273" stroke-linecap="round" stroke-linejoin="round"/>
<path fill-rule="evenodd" clip-rule="evenodd" d="M101.364 127.132C101.364 127.885 100.753 128.495 100 128.495C99.247 128.495 98.6365 127.885 98.6365 127.132C98.6365 126.38 99.247 125.77 100 125.77C100.753 125.77 101.364 126.38 101.364 127.132Z" stroke="#4550E5" stroke-width="2.27273" stroke-linecap="round" stroke-linejoin="round"/>
<path d="M130.432 99.103C130.444 102.117 128.016 104.575 125 104.6H74.9999C72.1055 104.414 69.8533 102.013 69.8533 99.1144C69.8533 96.2156 72.1055 93.8151 74.9999 93.6289H125C128.007 93.6538 130.432 96.0974 130.432 99.103Z" fill="#D6DAFF" stroke="#4550E5" stroke-width="2.27273" stroke-linejoin="round"/>
<path d="M111.682 93.6289H74.9999C72.1055 93.8151 69.8533 96.2156 69.8533 99.1144C69.8533 102.013 72.1055 104.414 74.9999 104.6H111.682V93.6289Z" fill="white" stroke="#4550E5" stroke-width="2.27273" stroke-linejoin="round"/>
<path fill-rule="evenodd" clip-rule="evenodd" d="M111.682 93.6289H74.9999C72.1055 93.8151 69.8533 96.2156 69.8533 99.1144C69.8533 102.013 72.1055 104.414 74.9999 104.6H111.682V93.6289Z" stroke="#4550E5" stroke-width="2.27273" stroke-linejoin="round"/>
<path d="M82.2954 19.9437C81.237 19.9241 80.2598 20.5084 79.7767 21.4499C79.2937 22.3913 79.3891 23.5254 80.0227 24.373L97.7273 47.2917C98.2529 47.9615 99.0573 48.3528 99.9091 48.3528C100.761 48.3528 101.565 47.9615 102.091 47.2917L119.795 24.373C120.429 23.5254 120.524 22.3913 120.041 21.4499C119.558 20.5084 118.581 19.9241 117.523 19.9437H110.705V7.22372C110.705 4.20043 108.252 1.74957 105.227 1.74957H94.5C91.475 1.74957 89.0227 4.20043 89.0227 7.22372V19.9437H82.2954Z" fill="white"/>
<path fill-rule="evenodd" clip-rule="evenodd" d="M82.2954 19.9437C81.237 19.9241 80.2598 20.5084 79.7767 21.4499C79.2937 22.3913 79.3891 23.5254 80.0227 24.373L97.7273 47.2917C98.2529 47.9615 99.0573 48.3528 99.9091 48.3528C100.761 48.3528 101.565 47.9615 102.091 47.2917L119.795 24.373C120.429 23.5254 120.524 22.3913 120.041 21.4499C119.558 20.5084 118.581 19.9241 117.523 19.9437H110.705V7.22372C110.705 4.20043 108.252 1.74957 105.227 1.74957H94.5C91.475 1.74957 89.0227 4.20043 89.0227 7.22372V19.9437H82.2954Z" stroke="#4550E5" stroke-width="2.27273" stroke-linejoin="round"/>
</svg>
